<svg width="307" height="348" viewBox="0 0 307 348" fill="none" xmlns="http://www.w3.org/2000/svg">
<path d="M178 312H129L153.5 337L178 312Z" fill="url(#paint0_linear)"/>
<path fill-rule="evenodd" clip-rule="evenodd" d="M53.8136 1C70.4416 31.7884 107.314 76.5 115.814 76.5C127.925 75.9537 135.616 75.6526 146.209 75.3395C148.452 75.2669 150.727 75.2012 153 75.1467V75.143L153.078 75.1449L153.157 75.143V75.1467C155.43 75.2012 157.705 75.2669 159.948 75.3395C170.54 75.6526 178.232 75.9537 190.343 76.5C198.843 76.5 235.715 31.7884 252.343 1C284.052 24.3418 283.737 47.9349 276.843 117.5C276.843 120.097 285.206 126.068 288.749 128.597C289.298 128.989 289.732 129.299 290 129.5C292.53 131.397 302 154.5 303 158C304 159 305.314 167.857 303.814 167C302.314 166.143 289.657 162.5 289.657 162.5C288.157 162.5 288.5 170 289.657 170.5C299 174.5 304.5 183 305 186.5C305.349 188.94 306.657 201 304.657 202C304.657 202 290.393 196.264 288.157 198.5C287.157 199.5 286.657 202 287.157 203C287.324 203.335 289.174 203.894 291.579 204.621C296.356 206.065 303.324 208.172 303.657 210.5C304.157 214 301.781 227 300 227C289.419 227 285.38 233.89 283.169 237.661C282.716 238.434 282.34 239.075 282 239.5C277 248.5 266.815 255.554 264.5 256.5C261.805 257.601 255.923 258.5 249.26 259.518L249.259 259.519L249.258 259.519L249.258 259.519C237.767 261.275 223.954 263.386 220.157 267.5C206.352 282.455 199.435 310.749 195.449 327.049C194.309 331.711 193.409 335.393 192.657 337.5C190.165 344.478 169.491 347.45 153.157 347.5V347.5L153.078 347.5L153 347.5V347.5C136.665 347.45 115.992 344.478 113.5 337.5C112.747 335.393 111.847 331.711 110.707 327.049C106.722 310.749 99.8043 282.455 86 267.5C82.2024 263.386 68.3896 261.275 56.8989 259.519L56.8984 259.519L56.898 259.519L56.8976 259.518C50.2343 258.5 44.352 257.601 41.6568 256.5C39.3421 255.554 29.1568 248.5 24.1568 239.5C23.8169 239.075 23.4408 238.434 22.9881 237.661C20.777 233.89 16.7379 227 6.15679 227C2.65677 227 0.364697 193 1.1568 186.5C1.46146 184 5.81362 182.5 16.3136 179C17.3136 178 17.8136 170 16.3136 170C16.3136 170 4.15678 175.143 2.6568 176C1.15683 176.857 2.15683 159 3.1568 158C4.15683 154.5 13.627 131.397 16.1568 129.5C16.4251 129.299 16.8582 128.99 17.407 128.598L17.4078 128.597L17.4079 128.597L17.4082 128.597L17.4083 128.597C20.9514 126.067 29.3136 120.097 29.3136 117.5C22.4201 47.9349 22.1053 24.3418 53.8136 1ZM153.5 337L129 312H178L153.5 337ZM88.2513 172L128.747 208.667C119.247 208.667 105.045 206.065 98.2466 200C92.2466 194.648 86.7466 181.5 88.2513 172ZM178 208.667L218.495 172C220 181.5 214.5 194.648 208.5 200C201.702 206.065 187.5 208.667 178 208.667Z" fill="black"/>
<path d="M115.814 76.5V77H115.825L115.836 76.9995L115.814 76.5ZM53.8136 1L54.2536 0.762401L53.9803 0.256433L53.5172 0.597337L53.8136 1ZM146.209 75.3395L146.224 75.8392L146.225 75.8392L146.209 75.3395ZM153 75.1467L153.012 75.6466L153.5 75.6349V75.1467H153ZM153 75.143L153.012 74.6431L152.5 74.6309V75.143H153ZM153.078 75.1449L153.066 75.6447L153.078 75.645L153.09 75.6447L153.078 75.1449ZM153.157 75.143H153.657V74.6309L153.145 74.6431L153.157 75.143ZM153.157 75.1467H152.657V75.6349L153.145 75.6466L153.157 75.1467ZM159.948 75.3395L159.932 75.8392L159.933 75.8392L159.948 75.3395ZM190.343 76.5L190.321 76.9995L190.332 77H190.343V76.5ZM252.343 1L252.64 0.597337L252.176 0.256433L251.903 0.762401L252.343 1ZM276.843 117.5L276.346 117.451L276.343 117.475V117.5H276.843ZM288.749 128.597L288.458 129.004L288.458 129.004L288.749 128.597ZM290 129.5L289.7 129.9L289.7 129.9L290 129.5ZM303 158L302.519 158.137L302.555 158.262L302.646 158.354L303 158ZM303.814 167L303.566 167.434L303.566 167.434L303.814 167ZM289.657 162.5L289.795 162.02L289.727 162H289.657V162.5ZM289.657 170.5L289.458 170.959L289.46 170.96L289.657 170.5ZM305 186.5L304.505 186.571L304.505 186.571L305 186.5ZM304.657 202L304.47 202.464L304.679 202.548L304.88 202.447L304.657 202ZM288.157 198.5L287.803 198.146L287.803 198.146L288.157 198.5ZM287.157 203L287.604 202.776L287.604 202.776L287.157 203ZM291.579 204.621L291.434 205.1L291.434 205.1L291.579 204.621ZM303.657 210.5L304.152 210.429L304.152 210.429L303.657 210.5ZM283.169 237.661L283.6 237.914L283.6 237.914L283.169 237.661ZM282 239.5L281.61 239.188L281.583 239.22L281.563 239.257L282 239.5ZM264.5 256.5L264.311 256.037L264.311 256.037L264.5 256.5ZM249.26 259.518L249.184 259.024L249.184 259.024L249.26 259.518ZM249.258 259.519L249.182 259.024L249.176 259.025L249.258 259.519ZM249.258 259.519L249.333 260.013L249.34 260.012L249.258 259.519ZM220.157 267.5L219.789 267.161L219.789 267.161L220.157 267.5ZM195.449 327.049L194.964 326.931L194.964 326.931L195.449 327.049ZM192.657 337.5L193.128 337.668L193.128 337.668L192.657 337.5ZM153.157 347.5L153.155 347L152.657 347.001V347.5H153.157ZM153.157 347.5L153.156 348L153.657 348.001V347.5H153.157ZM153.078 347.5L153.079 347L153.077 347L153.078 347.5ZM153 347.5H152.5V348.001L153.001 348L153 347.5ZM153 347.5H153.5V347.001L153.002 347L153 347.5ZM113.5 337.5L113.029 337.668L113.029 337.668L113.5 337.5ZM110.707 327.049L111.193 326.931L111.193 326.931L110.707 327.049ZM86 267.5L86.3674 267.161L86.3674 267.161L86 267.5ZM56.8989 259.519L56.8132 260.011L56.8234 260.013L56.8989 259.519ZM56.8984 259.519L56.787 260.006L56.7998 260.009L56.8127 260.011L56.8984 259.519ZM56.898 259.519L56.7692 260.002L56.7778 260.004L56.7866 260.006L56.898 259.519ZM56.8976 259.518L57.0265 259.035L57.0001 259.028L56.9732 259.024L56.8976 259.518ZM41.6568 256.5L41.4677 256.963L41.4677 256.963L41.6568 256.5ZM24.1568 239.5L24.5939 239.257L24.5735 239.22L24.5472 239.188L24.1568 239.5ZM22.9881 237.661L22.5568 237.914L22.5568 237.914L22.9881 237.661ZM1.1568 186.5L0.660474 186.44L0.660474 186.44L1.1568 186.5ZM16.3136 179L16.4717 179.474L16.5837 179.437L16.6672 179.354L16.3136 179ZM16.3136 170V169.5H16.2122L16.1188 169.54L16.3136 170ZM3.1568 158L3.51036 158.354L3.60197 158.262L3.63756 158.137L3.1568 158ZM16.1568 129.5L16.4568 129.9L16.4568 129.9L16.1568 129.5ZM17.407 128.598L17.1177 128.19L17.1164 128.191L17.407 128.598ZM17.4078 128.597L17.1597 128.163L17.1385 128.175L17.1185 128.189L17.4078 128.597ZM17.4079 128.597L17.6559 129.031L17.6747 129.021L17.6925 129.008L17.4079 128.597ZM17.4082 128.597L17.6928 129.008L17.7021 129.002L17.7112 128.995L17.4082 128.597ZM17.4083 128.597L17.1177 128.19L17.1114 128.194L17.1053 128.199L17.4083 128.597ZM29.3136 117.5H29.8136V117.475L29.8112 117.451L29.3136 117.5ZM129 312V311.5H127.81L128.643 312.35L129 312ZM153.5 337L153.143 337.35L153.5 337.714L153.857 337.35L153.5 337ZM178 312L178.357 312.35L179.19 311.5H178V312ZM128.747 208.667V209.167H130.044L129.082 208.296L128.747 208.667ZM88.2513 172L88.5868 171.629L87.9019 171.009L87.7574 171.922L88.2513 172ZM98.2466 200L98.5795 199.627L98.5795 199.627L98.2466 200ZM218.495 172L218.989 171.922L218.845 171.009L218.16 171.629L218.495 172ZM178 208.667L177.664 208.296L176.703 209.167H178V208.667ZM208.5 200L208.167 199.627L208.167 199.627L208.5 200ZM115.814 76C115.383 76 114.816 75.8559 114.105 75.5347C113.401 75.2162 112.588 74.7385 111.676 74.1075C109.851 72.8455 107.67 70.9983 105.223 68.6705C100.331 64.0169 94.4202 57.4827 88.2478 49.978C75.9018 34.9675 62.5476 16.1196 54.2536 0.762401L53.3737 1.2376C61.7077 16.6688 75.1034 35.5709 87.4754 50.6133C93.662 58.1351 99.6018 64.703 104.534 69.395C106.999 71.74 109.222 73.6264 111.107 74.9299C112.049 75.5816 112.916 76.0945 113.693 76.446C114.465 76.7948 115.182 77 115.814 77V76ZM146.194 74.8397C135.598 75.1529 127.904 75.4541 115.791 76.0005L115.836 76.9995C127.945 76.4532 135.634 76.1523 146.224 75.8392L146.194 74.8397ZM152.988 74.6469C150.713 74.7014 148.437 74.7671 146.193 74.8397L146.225 75.8392C148.467 75.7667 150.74 75.7011 153.012 75.6466L152.988 74.6469ZM152.5 75.143V75.1467H153.5V75.143H152.5ZM153.09 74.645L153.012 74.6431L152.988 75.6428L153.066 75.6447L153.09 74.645ZM153.145 74.6431L153.066 74.645L153.09 75.6447L153.169 75.6428L153.145 74.6431ZM153.657 75.1467V75.143H152.657V75.1467H153.657ZM159.964 74.8397C157.72 74.7671 155.444 74.7014 153.169 74.6469L153.145 75.6466C155.416 75.7011 157.69 75.7667 159.932 75.8392L159.964 74.8397ZM190.366 76.0005C178.253 75.4541 170.558 75.1529 159.963 74.8397L159.933 75.8392C170.522 76.1523 178.211 76.4532 190.321 76.9995L190.366 76.0005ZM251.903 0.762401C243.609 16.1196 230.255 34.9675 217.909 49.978C211.737 57.4827 205.825 64.0169 200.934 68.6705C198.487 70.9983 196.305 72.8455 194.481 74.1075C193.569 74.7385 192.756 75.2162 192.051 75.5347C191.341 75.8559 190.774 76 190.343 76V77C190.975 77 191.692 76.7948 192.463 76.446C193.241 76.0945 194.108 75.5816 195.05 74.9299C196.934 73.6264 199.158 71.74 201.623 69.395C206.555 64.703 212.495 58.1351 218.681 50.6133C231.053 35.5709 244.449 16.6688 252.783 1.2376L251.903 0.762401ZM277.341 117.549C280.785 82.7879 282.599 59.4237 279.562 41.8312C276.513 24.1735 268.581 12.3327 252.64 0.597337L252.047 1.40266C267.813 13.0091 275.578 24.6357 278.576 42.0013C281.585 59.4321 279.794 82.647 276.346 117.451L277.341 117.549ZM289.039 128.19C287.266 126.924 284.305 124.81 281.789 122.691C280.53 121.631 279.397 120.582 278.582 119.646C278.175 119.178 277.858 118.75 277.645 118.373C277.427 117.988 277.343 117.7 277.343 117.5H276.343C276.343 117.949 276.52 118.416 276.774 118.865C277.032 119.322 277.396 119.806 277.828 120.302C278.692 121.295 279.871 122.383 281.145 123.456C283.696 125.605 286.689 127.741 288.458 129.004L289.039 128.19ZM290.3 129.1C290.026 128.894 289.586 128.58 289.039 128.19L288.458 129.004C289.01 129.398 289.437 129.703 289.7 129.9L290.3 129.1ZM303.481 157.863C302.97 156.075 300.338 149.394 297.532 142.949C296.126 139.72 294.669 136.535 293.404 134.036C292.772 132.786 292.183 131.701 291.67 130.864C291.414 130.446 291.172 130.084 290.95 129.792C290.733 129.506 290.514 129.261 290.3 129.1L289.7 129.9C289.802 129.977 289.954 130.134 290.154 130.397C290.349 130.653 290.571 130.985 290.818 131.387C291.311 132.191 291.885 133.249 292.512 134.487C293.765 136.962 295.213 140.127 296.615 143.349C299.426 149.805 302.03 156.425 302.519 158.137L303.481 157.863ZM303.566 167.434C303.73 167.528 303.947 167.595 304.183 167.536C304.418 167.478 304.574 167.32 304.669 167.173C304.846 166.903 304.92 166.517 304.957 166.145C305.035 165.365 304.975 164.264 304.841 163.137C304.706 162.003 304.491 160.808 304.245 159.827C304.122 159.337 303.989 158.892 303.851 158.53C303.721 158.191 303.56 157.853 303.354 157.646L302.646 158.354C302.69 158.397 302.789 158.554 302.917 158.888C303.036 159.199 303.158 159.603 303.275 160.07C303.509 161.005 303.717 162.158 303.848 163.256C303.98 164.361 304.029 165.376 303.962 166.046C303.927 166.4 303.866 166.574 303.831 166.627C303.821 166.643 303.852 166.588 303.942 166.566C304.034 166.543 304.085 166.579 304.062 166.566L303.566 167.434ZM289.657 162.5C289.519 162.98 289.519 162.981 289.519 162.981C289.519 162.981 289.519 162.981 289.519 162.981C289.519 162.981 289.52 162.981 289.521 162.981C289.522 162.982 289.525 162.982 289.528 162.983C289.534 162.985 289.543 162.987 289.555 162.991C289.579 162.998 289.614 163.008 289.661 163.021C289.753 163.048 289.89 163.088 290.064 163.138C290.413 163.24 290.913 163.385 291.517 163.562C292.726 163.917 294.354 164.399 296.027 164.907C297.702 165.416 299.42 165.95 300.812 166.41C301.508 166.64 302.119 166.851 302.601 167.029C303.095 167.213 303.419 167.35 303.566 167.434L304.062 166.566C303.833 166.435 303.434 166.272 302.949 166.092C302.451 165.907 301.827 165.692 301.126 165.461C299.723 164.997 297.995 164.46 296.318 163.95C294.64 163.441 293.01 162.958 291.799 162.603C291.193 162.425 290.692 162.279 290.343 162.178C290.168 162.127 290.031 162.088 289.938 162.061C289.892 162.047 289.856 162.037 289.832 162.03C289.82 162.027 289.811 162.024 289.804 162.022C289.801 162.021 289.799 162.021 289.797 162.02C289.797 162.02 289.796 162.02 289.796 162.02C289.796 162.02 289.795 162.02 289.795 162.02C289.795 162.02 289.795 162.02 289.657 162.5ZM289.855 170.041C289.892 170.057 289.826 170.038 289.717 169.803C289.621 169.595 289.528 169.3 289.446 168.931C289.283 168.197 289.181 167.246 289.16 166.301C289.139 165.353 289.201 164.445 289.349 163.79C289.424 163.458 289.513 163.228 289.6 163.093C289.687 162.957 289.711 163 289.657 163V162C289.227 162 288.935 162.277 288.758 162.554C288.58 162.831 288.459 163.19 288.374 163.569C288.2 164.336 288.139 165.334 288.161 166.324C288.183 167.316 288.29 168.334 288.47 169.147C288.559 169.552 288.671 169.924 288.809 170.223C288.935 170.493 289.133 170.818 289.458 170.959L289.855 170.041ZM305.495 186.429C305.225 184.542 303.655 181.455 301.025 178.364C298.38 175.253 294.609 172.076 289.854 170.04L289.46 170.96C294.048 172.924 297.699 175.997 300.264 179.011C302.845 182.045 304.275 184.958 304.505 186.571L305.495 186.429ZM304.88 202.447C305.31 202.233 305.565 201.776 305.731 201.316C305.904 200.835 306.021 200.229 306.1 199.557C306.257 198.211 306.269 196.503 306.209 194.773C306.087 191.306 305.671 187.663 305.495 186.429L304.505 186.571C304.677 187.777 305.09 191.384 305.209 194.808C305.269 196.522 305.255 198.17 305.107 199.441C305.032 200.079 304.926 200.599 304.79 200.978C304.645 201.378 304.504 201.517 304.433 201.553L304.88 202.447ZM288.51 198.854C288.665 198.699 288.988 198.56 289.555 198.506C290.105 198.454 290.804 198.49 291.611 198.599C293.224 198.817 295.187 199.316 297.102 199.89C299.012 200.464 300.854 201.107 302.221 201.608C302.904 201.858 303.467 202.073 303.859 202.224C304.055 202.3 304.208 202.36 304.312 202.401C304.364 202.422 304.404 202.437 304.431 202.448C304.444 202.453 304.454 202.457 304.461 202.46C304.464 202.461 304.466 202.462 304.468 202.463C304.469 202.463 304.469 202.464 304.47 202.464C304.47 202.464 304.47 202.464 304.47 202.464C304.47 202.464 304.47 202.464 304.657 202C304.843 201.536 304.843 201.536 304.843 201.536C304.843 201.536 304.843 201.536 304.843 201.536C304.842 201.536 304.841 201.535 304.84 201.535C304.839 201.534 304.836 201.533 304.832 201.532C304.825 201.529 304.815 201.525 304.801 201.519C304.773 201.508 304.733 201.492 304.68 201.471C304.574 201.429 304.418 201.368 304.22 201.292C303.823 201.138 303.254 200.922 302.565 200.669C301.187 200.164 299.325 199.514 297.389 198.933C295.458 198.353 293.436 197.837 291.745 197.608C290.901 197.494 290.118 197.448 289.461 197.511C288.82 197.571 288.207 197.742 287.803 198.146L288.51 198.854ZM287.604 202.776C287.526 202.62 287.469 202.36 287.461 202.006C287.455 201.66 287.496 201.261 287.583 200.855C287.761 200.023 288.108 199.256 288.51 198.854L287.803 198.146C287.206 198.744 286.802 199.727 286.605 200.645C286.505 201.114 286.453 201.59 286.462 202.026C286.47 202.452 286.538 202.88 286.71 203.224L287.604 202.776ZM291.723 204.143C290.517 203.778 289.465 203.46 288.693 203.191C288.306 203.057 288.004 202.94 287.794 202.84C287.688 202.79 287.619 202.751 287.579 202.723C287.523 202.685 287.566 202.7 287.604 202.776L286.71 203.224C286.79 203.384 286.927 203.489 287.014 203.549C287.116 203.618 287.238 203.683 287.366 203.744C287.626 203.867 287.968 203.998 288.365 204.136C289.16 204.412 290.236 204.737 291.434 205.1L291.723 204.143ZM304.152 210.429C304.037 209.629 303.383 208.955 302.59 208.394C301.771 207.816 300.681 207.272 299.478 206.768C297.068 205.758 294.106 204.863 291.723 204.143L291.434 205.1C293.829 205.824 296.739 206.704 299.091 207.69C300.269 208.184 301.282 208.694 302.013 209.211C302.769 209.745 303.11 210.207 303.162 210.571L304.152 210.429ZM300 227.5C300.269 227.5 300.493 227.377 300.66 227.237C300.829 227.097 300.977 226.91 301.109 226.706C301.373 226.298 301.625 225.736 301.862 225.086C302.34 223.779 302.794 222.018 303.174 220.163C303.554 218.305 303.862 216.335 304.044 214.607C304.225 212.894 304.286 211.371 304.152 210.429L303.162 210.571C303.277 211.379 303.23 212.794 303.05 214.502C302.871 216.196 302.568 218.133 302.194 219.962C301.819 221.795 301.376 223.502 300.923 224.742C300.695 225.366 300.474 225.847 300.269 226.163C300.167 226.321 300.082 226.418 300.02 226.469C299.957 226.521 299.953 226.5 300 226.5V227.5ZM283.6 237.914C284.707 236.027 286.232 233.431 288.767 231.299C291.289 229.178 294.831 227.5 300 227.5V226.5C294.588 226.5 290.82 228.266 288.124 230.534C285.442 232.789 283.842 235.525 282.737 237.409L283.6 237.914ZM282.39 239.812C282.758 239.352 283.155 238.673 283.6 237.914L282.737 237.409C282.277 238.194 281.921 238.798 281.61 239.188L282.39 239.812ZM264.689 256.963C265.32 256.705 266.428 256.061 267.791 255.122C269.165 254.177 270.826 252.914 272.571 251.398C276.055 248.371 279.898 244.313 282.437 239.743L281.563 239.257C279.102 243.687 275.352 247.657 271.915 250.643C270.199 252.134 268.567 253.374 267.224 254.299C265.871 255.23 264.837 255.822 264.311 256.037L264.689 256.963ZM249.335 260.013C252.664 259.504 255.809 259.023 258.459 258.532C261.098 258.042 263.289 257.535 264.689 256.963L264.311 256.037C263.016 256.566 260.918 257.059 258.277 257.549C255.646 258.037 252.518 258.515 249.184 259.024L249.335 260.013ZM249.335 260.013L249.336 260.013L249.184 259.024L249.183 259.024L249.335 260.013ZM249.334 260.013L249.335 260.013L249.183 259.024L249.182 259.024L249.334 260.013ZM249.34 260.012L249.341 260.012L249.176 259.025L249.176 259.026L249.34 260.012ZM220.524 267.839C221.397 266.894 222.889 266.024 224.876 265.228C226.852 264.438 229.267 263.74 231.937 263.112C237.278 261.856 243.583 260.892 249.333 260.013L249.182 259.024C243.442 259.902 237.095 260.871 231.708 262.138C229.014 262.772 226.545 263.483 224.504 264.3C222.474 265.112 220.815 266.049 219.789 267.161L220.524 267.839ZM195.935 327.168C197.928 319.016 200.648 307.891 204.591 296.939C208.537 285.979 213.69 275.242 220.524 267.839L219.789 267.161C212.819 274.712 207.611 285.6 203.651 296.601C199.687 307.609 196.956 318.782 194.964 326.931L195.935 327.168ZM193.128 337.668C193.891 335.53 194.799 331.816 195.935 327.168L194.964 326.931C193.82 331.607 192.927 335.255 192.186 337.332L193.128 337.668ZM153.158 348C161.349 347.975 170.638 347.217 178.203 345.587C181.984 344.772 185.357 343.734 187.953 342.447C190.53 341.17 192.438 339.6 193.128 337.668L192.186 337.332C191.63 338.889 190.019 340.307 187.509 341.551C185.017 342.786 181.733 343.803 177.992 344.609C170.514 346.221 161.299 346.975 153.155 347L153.158 348ZM153.657 347.5V347.5H152.657V347.5H153.657ZM153.077 348L153.156 348L153.158 347L153.079 347L153.077 348ZM153.001 348L153.079 348L153.077 347L152.999 347L153.001 348ZM152.5 347.5V347.5H153.5V347.5H152.5ZM113.029 337.668C113.719 339.6 115.627 341.17 118.204 342.447C120.8 343.734 124.173 344.772 127.954 345.587C135.519 347.217 144.808 347.975 152.998 348L153.002 347C144.858 346.975 135.642 346.221 128.164 344.609C124.424 343.803 121.14 342.786 118.648 341.551C116.138 340.307 114.527 338.889 113.971 337.332L113.029 337.668ZM110.222 327.168C111.358 331.816 112.265 335.53 113.029 337.668L113.971 337.332C113.229 335.255 112.337 331.607 111.193 326.931L110.222 327.168ZM85.6326 267.839C92.4662 275.242 97.6194 285.979 101.565 296.939C105.508 307.891 108.229 319.016 110.222 327.168L111.193 326.931C109.201 318.782 106.47 307.609 102.506 296.601C98.5459 285.6 93.338 274.712 86.3674 267.161L85.6326 267.839ZM56.8234 260.013C62.5737 260.892 68.8787 261.856 74.2199 263.112C76.8901 263.74 79.305 264.438 81.2809 265.228C83.2681 266.024 84.7597 266.894 85.6326 267.839L86.3674 267.161C85.3415 266.049 83.6823 265.112 81.6525 264.3C79.6114 263.483 77.1428 262.772 74.4488 262.138C69.0615 260.871 62.7148 259.902 56.9745 259.024L56.8234 260.013ZM56.8127 260.011L56.8132 260.011L56.9846 259.026L56.9841 259.026L56.8127 260.011ZM56.7866 260.006L56.787 260.006L57.0098 259.031L57.0094 259.031L56.7866 260.006ZM56.7688 260.002L56.7692 260.002L57.0268 259.035L57.0265 259.035L56.7688 260.002ZM41.4677 256.963C42.8683 257.535 45.0592 258.042 47.698 258.532C50.3478 259.023 53.4928 259.504 56.8221 260.013L56.9732 259.024C53.6391 258.515 50.5113 258.037 47.8804 257.549C45.2384 257.059 43.1405 256.566 41.8459 256.037L41.4677 256.963ZM23.7197 239.743C26.2586 244.313 30.1016 248.371 33.5858 251.398C35.3304 252.914 36.9917 254.177 38.3655 255.122C39.7289 256.061 40.8364 256.705 41.4677 256.963L41.8459 256.037C41.3198 255.822 40.2861 255.23 38.9325 254.299C37.5894 253.374 35.9578 252.134 34.2417 250.643C30.8046 247.657 27.0549 243.687 24.5939 239.257L23.7197 239.743ZM22.5568 237.914C23.0015 238.673 23.3984 239.352 23.7664 239.812L24.5472 239.188C24.2354 238.798 23.8801 238.194 23.4194 237.409L22.5568 237.914ZM6.15679 227.5C11.3258 227.5 14.8677 229.178 17.3894 231.299C19.925 233.431 21.4501 236.027 22.5568 237.914L23.4194 237.409C22.315 235.525 20.715 232.789 18.033 230.534C15.3371 228.266 11.5689 226.5 6.15679 226.5V227.5ZM0.660474 186.44C0.45691 188.11 0.45404 191.492 0.612063 195.59C0.770619 199.701 1.09291 204.57 1.54963 209.236C2.00603 213.899 2.59804 218.373 3.29838 221.689C3.64772 223.343 4.02898 224.734 4.44363 225.72C4.64997 226.211 4.87641 226.631 5.13105 226.937C5.38006 227.235 5.72125 227.5 6.15679 227.5V226.5C6.15483 226.5 6.06796 226.499 5.89925 226.296C5.73618 226.101 5.55527 225.784 5.36551 225.333C4.98799 224.434 4.62215 223.118 4.27679 221.483C3.58774 218.22 2.99998 213.788 2.54487 209.139C2.09009 204.492 1.76912 199.643 1.61132 195.551C1.45298 191.445 1.46064 188.14 1.65313 186.56L0.660474 186.44ZM16.1555 178.526C10.9175 180.272 7.17242 181.532 4.70251 182.671C3.46713 183.241 2.51424 183.797 1.84474 184.392C1.16635 184.995 0.755285 185.662 0.660474 186.44L1.65313 186.56C1.71065 186.088 1.95785 185.63 2.5093 185.139C3.06964 184.641 3.91817 184.134 5.12141 183.579C7.52873 182.468 11.2097 181.228 16.4717 179.474L16.1555 178.526ZM16.3136 170.5C16.24 170.5 16.263 170.442 16.3527 170.596C16.4396 170.746 16.5261 170.999 16.5962 171.361C16.7346 172.075 16.7821 173.064 16.7513 174.11C16.7207 175.152 16.6134 176.22 16.4547 177.081C16.3752 177.513 16.2847 177.882 16.1886 178.166C16.0857 178.47 15.998 178.608 15.9601 178.646L16.6672 179.354C16.8792 179.142 17.0259 178.811 17.1358 178.486C17.2527 178.141 17.3536 177.722 17.4382 177.262C17.6075 176.343 17.719 175.223 17.7509 174.14C17.7826 173.061 17.7364 171.988 17.5779 171.17C17.4996 170.766 17.3869 170.386 17.2179 170.095C17.0518 169.808 16.7622 169.5 16.3136 169.5V170.5ZM2.90487 176.434C3.25292 176.235 4.26608 175.765 5.62722 175.158C6.97511 174.556 8.63317 173.834 10.2459 173.138C11.8582 172.442 13.4239 171.772 14.5866 171.277C15.168 171.029 15.6485 170.825 15.9836 170.683C16.1512 170.612 16.2824 170.556 16.3718 170.518C16.4164 170.499 16.4506 170.485 16.4736 170.475C16.4851 170.47 16.4938 170.467 16.4997 170.464C16.5026 170.463 16.5048 170.462 16.5062 170.461C16.507 170.461 16.5075 170.461 16.5079 170.461C16.5081 170.461 16.5082 170.461 16.5083 170.461C16.5084 170.461 16.5084 170.46 16.3136 170C16.1188 169.54 16.1187 169.54 16.1187 169.54C16.1186 169.54 16.1184 169.54 16.1182 169.54C16.1179 169.54 16.1173 169.54 16.1166 169.54C16.1151 169.541 16.1129 169.542 16.1099 169.543C16.1041 169.546 16.0953 169.549 16.0838 169.554C16.0607 169.564 16.0264 169.579 15.9817 169.598C15.8922 169.635 15.7608 169.691 15.593 169.762C15.2575 169.905 14.7765 170.109 14.1947 170.357C13.0311 170.853 11.4639 171.523 9.84953 172.22C8.23551 172.916 6.57312 173.64 5.21973 174.244C3.8796 174.842 2.81067 175.336 2.40874 175.566L2.90487 176.434ZM2.80324 157.646C2.64927 157.8 2.55742 158.033 2.49561 158.218C2.42489 158.43 2.35897 158.694 2.297 158.995C2.17268 159.597 2.05547 160.39 1.94927 161.297C1.73658 163.113 1.5639 165.425 1.46976 167.676C1.37572 169.924 1.35931 172.127 1.46255 173.722C1.51368 174.512 1.59599 175.187 1.72512 175.648C1.78613 175.866 1.87616 176.109 2.03099 176.283C2.11515 176.377 2.24368 176.479 2.42238 176.516C2.60838 176.555 2.77642 176.508 2.90487 176.434L2.40874 175.566C2.44344 175.546 2.52261 175.516 2.62447 175.537C2.71904 175.556 2.76816 175.607 2.7775 175.617C2.78267 175.623 2.74135 175.569 2.68811 175.379C2.58873 175.024 2.51089 174.437 2.46046 173.657C2.36058 172.114 2.37542 169.951 2.46888 167.717C2.56224 165.486 2.73331 163.199 2.94249 161.413C3.04722 160.519 3.16048 159.759 3.27638 159.197C3.33453 158.915 3.39117 158.694 3.44422 158.535C3.50619 158.349 3.53934 158.325 3.51036 158.354L2.80324 157.646ZM15.8568 129.1C15.6427 129.261 15.424 129.506 15.2069 129.792C14.9847 130.084 14.7432 130.446 14.4867 130.864C13.9735 131.701 13.3852 132.786 12.7528 134.036C11.4873 136.535 10.0308 139.72 8.62471 142.949C5.81841 149.394 3.18673 156.075 2.67604 157.863L3.63756 158.137C4.1269 156.425 6.73031 149.805 9.54155 143.349C10.9442 140.127 12.3921 136.962 13.645 134.487C14.2718 133.249 14.8463 132.191 15.3391 131.387C15.5856 130.985 15.808 130.653 16.0029 130.397C16.2029 130.134 16.3547 129.977 16.4568 129.9L15.8568 129.1ZM17.1164 128.191C16.5702 128.581 16.131 128.894 15.8568 129.1L16.4568 129.9C16.7192 129.703 17.1461 129.398 17.6975 129.005L17.1164 128.191ZM17.1185 128.189L17.1177 128.19L17.6962 129.006L17.697 129.005L17.1185 128.189ZM17.1598 128.163L17.1597 128.163L17.6558 129.031L17.6559 129.031L17.1598 128.163ZM17.1235 128.186L17.1232 128.186L17.6925 129.008L17.6928 129.008L17.1235 128.186ZM17.1053 128.199L17.1051 128.199L17.7112 128.995L17.7113 128.995L17.1053 128.199ZM28.8136 117.5C28.8136 117.7 28.7293 117.988 28.5121 118.373C28.2991 118.75 27.9819 119.178 27.5745 119.646C26.76 120.582 25.6267 121.631 24.3675 122.691C21.8517 124.81 18.8915 126.924 17.1177 128.19L17.6988 129.004C19.4682 127.741 22.4606 125.605 25.0117 123.456C26.286 122.383 27.4646 121.295 28.3288 120.302C28.7608 119.806 29.1245 119.321 29.3827 118.865C29.6366 118.416 29.8136 117.949 29.8136 117.5H28.8136ZM53.5172 0.597337C37.5755 12.3327 29.6436 24.1735 26.5952 41.8312C23.5581 59.4237 25.3714 82.7879 28.8161 117.549L29.8112 117.451C26.3623 82.647 24.5714 59.4321 27.5806 42.0013C30.5786 24.6357 38.3434 13.0091 54.11 1.40266L53.5172 0.597337ZM128.643 312.35L153.143 337.35L153.857 336.65L129.357 311.65L128.643 312.35ZM178 311.5H129V312.5H178V311.5ZM153.857 337.35L178.357 312.35L177.643 311.65L153.143 336.65L153.857 337.35ZM129.082 208.296L88.5868 171.629L87.9157 172.371L128.411 209.037L129.082 208.296ZM97.9138 200.373C101.402 203.485 106.744 205.676 112.361 207.092C117.99 208.511 123.957 209.167 128.747 209.167V208.167C124.037 208.167 118.152 207.521 112.606 206.123C107.048 204.722 101.89 202.58 98.5795 199.627L97.9138 200.373ZM87.7574 171.922C86.9869 176.787 88.0118 182.54 89.9668 187.732C91.9212 192.921 94.8339 197.626 97.9138 200.373L98.5795 199.627C95.6594 197.022 92.8221 192.476 90.9026 187.379C88.9837 182.284 88.011 176.713 88.7451 172.078L87.7574 171.922ZM218.16 171.629L177.664 208.296L178.336 209.037L218.831 172.371L218.16 171.629ZM208.833 200.373C211.913 197.626 214.826 192.921 216.78 187.732C218.735 182.54 219.76 176.787 218.989 171.922L218.002 172.078C218.736 176.713 217.763 182.284 215.844 187.379C213.925 192.476 211.087 197.022 208.167 199.627L208.833 200.373ZM178 209.167C182.79 209.167 188.756 208.511 194.385 207.092C200.003 205.676 205.345 203.485 208.833 200.373L208.167 199.627C204.857 202.58 199.699 204.722 194.141 206.123C188.594 207.521 182.71 208.167 178 208.167V209.167Z" fill="black"/>
<defs>
<linearGradient id="paint0_linear" x1="153.5" y1="312" x2="153.5" y2="337" gradientUnits="userSpaceOnUse">
<stop stop-opacity="0"/>
<stop offset="1" stop-opacity="0.5"/>
</linearGradient>
</defs>
</svg>
